# xmcd CD database file
#
# Track frame offsets:
#	150
#	17753
#	32544
#	44120
#	57983
#	76748
#	91192
#	105099
#	121693
#	135885
#
# Disc length: 1975 seconds
#
# Revision: 2
# Processed by: cddbd v1.5.2PL0 Copyright (c) Steve Scherf et al.
# Submitted via: jetAudio 7
#
DISCID=6807b50a
DTITLE=Floyd Cramer - Pop Classics Vol. 1
DYEAR=2000
DGENRE=Country
TTITLE0=Unforgettable
TTITLE1=Love Theme From ''Romeo And Juliet'' (A Time For Us)
TTITLE2=My Cup Runneth Over
TTITLE3=I Only Have Eyes For You
TTITLE4=Red Roses For A Blue Lady - My Blue Heaven - Tonight We Love, Moo
TTITLE4=nlight And Roses
TTITLE5=It Had To Be You
TTITLE6=Twelfth Of Never
TTITLE7=Have I Told You Lately (That I Love You) - Room Full Of Roses - H
TTITLE7=alf As Much
TTITLE8=Misty - You Belong To Me - Someone To Watch Over Me
TTITLE9=Danny Boy
EXTD=
EXTT0=
EXTT1=
EXTT2=
EXTT3=
EXTT4=
EXTT5=
EXTT6=
EXTT7=
EXTT8=
EXTT9=
PLAYORDER=
